REM DIRINDEX 1\2,1\4,1\3\5,1\3\6,1\3\7
REM DIRNAME folder01,folder02,folder03,folder04,folder05,folder06,folder07
TITLE ""
FILE "CD1Track28.mp3" MP3
  TRACK 01 AUDIO
    TITLE "0:"
    INDEX 01 00:00:00
  TRACK 02 AUDIO
    TITLE "5:cjc081_0473"
    INDEX 01 00:00:21
  TRACK 03 AUDIO
    TITLE "0:"
    INDEX 01 00:01:38
  TRACK 04 AUDIO
    TITLE "6:cjc081_0474"
    INDEX 01 00:02:10
  TRACK 05 AUDIO
    TITLE "0:"
    INDEX 01 00:04:01
  TRACK 06 AUDIO
    TITLE "5:cjc081_0475"
    INDEX 01 00:04:44
  TRACK 07 AUDIO
    TITLE "0:"
    INDEX 01 00:06:04
  TRACK 08 AUDIO
    TITLE "6:cjc081_0476"
    INDEX 01 00:06:49
  TRACK 09 AUDIO
    TITLE "0:"
    INDEX 01 00:07:66
  TRACK 10 AUDIO
    TITLE "5:cjc081_0477"
    INDEX 01 00:08:34
  TRACK 11 AUDIO
    TITLE "0:"
    INDEX 01 00:09:51
  TRACK 12 AUDIO
    TITLE "6:cjc081_0478"
    INDEX 01 00:10:23
  TRACK 13 AUDIO
    TITLE "0:"
    INDEX 01 00:11:46
  TRACK 14 AUDIO
    TITLE "5:cjc081_0479"
    INDEX 01 00:12:16
  TRACK 15 AUDIO
    TITLE "0:"
    INDEX 01 00:13:35
  TRACK 16 AUDIO
    TITLE "6:cjc081_0480"
    INDEX 01 00:14:02
  TRACK 17 AUDIO
    TITLE "0:"
    INDEX 01 00:15:01
  TRACK 18 AUDIO
    TITLE "5:cjc081_0481"
    INDEX 01 00:15:48
  TRACK 19 AUDIO
    TITLE "0:"
    INDEX 01 00:16:73
  TRACK 20 AUDIO
    TITLE "6:cjc081_0482"
    INDEX 01 00:17:45
  TRACK 21 AUDIO
    TITLE "0:"
    INDEX 01 00:18:58
  TRACK 22 AUDIO
    TITLE "5:cjc081_0483"
    INDEX 01 00:19:30
  TRACK 23 AUDIO
    TITLE "0:"
    INDEX 01 00:20:61
  TRACK 24 AUDIO
    TITLE "6:cjc081_0484"
    INDEX 01 00:21:43
  TRACK 25 AUDIO
    TITLE "0:"
    INDEX 01 00:25:19
  TRACK 26 AUDIO
    TITLE "5:cjc081_0485"
    INDEX 01 00:25:60
  TRACK 27 AUDIO
    TITLE "0:"
    INDEX 01 00:27:28
  TRACK 28 AUDIO
    TITLE "6:cjc081_0486"
    INDEX 01 00:28:00
  TRACK 29 AUDIO
    TITLE "0:"
    INDEX 01 00:30:08
  TRACK 30 AUDIO
    TITLE "5:cjc081_0487"
    INDEX 01 00:30:52
  TRACK 31 AUDIO
    TITLE "0:"
    INDEX 01 00:31:55
  TRACK 32 AUDIO
    TITLE "6:cjc081_0488"
    INDEX 01 00:32:31
  TRACK 33 AUDIO
    TITLE "0:"
    INDEX 01 00:34:18
  TRACK 34 AUDIO
    TITLE "5:cjc081_0489"
    INDEX 01 00:34:63
  TRACK 35 AUDIO
    TITLE "0:"
    INDEX 01 00:36:19
  TRACK 36 AUDIO
    TITLE "6:cjc081_0490"
    INDEX 01 00:36:70
  TRACK 37 AUDIO
    TITLE "0:"
    INDEX 01 00:39:05
  TRACK 38 AUDIO
    TITLE "5:cjc081_0491"
    INDEX 01 00:39:51
  TRACK 39 AUDIO
    TITLE "0:"
    INDEX 01 00:40:72
  TRACK 40 AUDIO
    TITLE "6:cjc081_0492"
    INDEX 01 00:41:44
  TRACK 41 AUDIO
    TITLE "0:"
    INDEX 01 00:45:57
  TRACK 42 AUDIO
    TITLE "5:cjc081_0493"
    INDEX 01 00:46:27
  TRACK 43 AUDIO
    TITLE "0:"
    INDEX 01 00:47:58
  TRACK 44 AUDIO
    TITLE "6:cjc081_0494"
    INDEX 01 00:48:38
  TRACK 45 AUDIO
    TITLE "0:"
    INDEX 01 00:50:25
  TRACK 46 AUDIO
    TITLE "5:cjc081_0495"
    INDEX 01 00:50:68
  TRACK 47 AUDIO
    TITLE "0:"
    INDEX 01 00:52:30
  TRACK 48 AUDIO
    TITLE "6:cjc081_0496"
    INDEX 01 00:52:73
  TRACK 49 AUDIO
    TITLE "0:"
    INDEX 01 00:55:04
  TRACK 50 AUDIO
    TITLE "5:cjc081_0497"
    INDEX 01 00:55:48
  TRACK 51 AUDIO
    TITLE "0:"
    INDEX 01 00:57:25
  TRACK 52 AUDIO
    TITLE "6:cjc081_0498"
    INDEX 01 00:57:72
  TRACK 53 AUDIO
    TITLE "0:"
    INDEX 01 01:00:15
  TRACK 54 AUDIO
    TITLE "5:cjc081_0499"
    INDEX 01 01:00:59
  TRACK 55 AUDIO
    TITLE "0:"
    INDEX 01 01:02:12
  TRACK 56 AUDIO
    TITLE "6:cjc081_0500"
    INDEX 01 01:02:61
  TRACK 57 AUDIO
    TITLE "0:"
    INDEX 01 01:04:09
  TRACK 58 AUDIO
    TITLE "7:cjc081_0501"
    INDEX 01 01:05:48
  TRACK 59 AUDIO
    TITLE "0:"
    INDEX 01 01:15:72
